<?xml version="1.0" standalone="no"?>
<!DOCTYPE svg PUBLIC "-//W3C//DTD SVG 20010904//EN"
 "http://www.w3.org/TR/2001/REC-SVG-20010904/DTD/svg10.dtd">
<svg version="1.0" xmlns="http://www.w3.org/2000/svg"
 width="512.000000pt" height="512.000000pt" viewBox="0 0 512.000000 512.000000"
 preserveAspectRatio="xMidYMid meet">

<g transform="translate(0.000000,512.000000) scale(0.100000,-0.100000)"
fill="#000000" stroke="none">
<path d="M2285 4675 c-688 -90 -1291 -511 -1614 -1126 -34 -64 -61 -121 -61
-128 0 -8 121 -11 487 -9 l487 3 28 110 c165 652 495 1097 858 1158 62 11 -96
3 -185 -8z"/>
<path d="M2650 4683 c363 -61 693 -506 858 -1158 l28 -110 487 -3 c348 -1 487
1 487 9 0 6 -23 56 -51 111 -326 634 -958 1070 -1661 1147 -93 11 -203 13
-148 4z"/>
<path d="M2492 4250 c-55 -25 -164 -134 -221 -220 -88 -134 -214 -435 -246
-587 l-7 -33 542 0 542 0 -7 33 c-32 152 -158 453 -246 587 -86 131 -217 240
-289 240 -14 0 -45 -9 -68 -20z"/>
<path d="M461 2938 c-41 -203 -41 -553 0 -755 l10 -53 525 0 524 0 -7 43 c-10
55 -10 719 0 775 l7 42 -524 0 -525 0 -10 -52z"/>
<path d="M1933 2923 c-10 -88 -10 -638 0 -725 l9 -68 618 0 618 0 9 68 c10 87
10 637 0 725 l-9 67 -618 0 -618 0 -9 -67z"/>
<path d="M3607 2948 c5 -24 8 -198 8 -388 0 -190 -3 -364 -8 -387 l-7 -43 524
0 525 0 10 53 c41 202 41 552 0 755 l-10 52 -525 0 -524 0 7 -42z"/>
<path d="M610 1699 c0 -18 100 -206 153 -287 128 -196 327 -414 492 -539 319
-241 660 -381 1045 -429 101 -12 237 -18 170 -7 -363 61 -693 506 -858 1158
l-28 110 -487 3 c-348 1 -487 -1 -487 -9z"/>
<path d="M2025 1678 c32 -153 158 -454 246 -588 86 -131 217 -240 289 -240 72
0 203 109 289 240 88 134 214 435 246 588 l7 32 -542 0 -542 0 7 -32z"/>
<path d="M3537 1703 c-3 -5 -14 -46 -25 -93 -83 -348 -241 -685 -423 -899
-120 -141 -295 -250 -439 -274 -53 -9 58 -6 145 3 583 65 1123 375 1471 841
100 136 244 382 244 419 0 12 -966 15 -973 3z"/>
</g>
</svg>
